<svg xmlns="http://www.w3.org/2000/svg" viewBox="0 0 530 530" role="img" aria-label="QR soporte Snackeria">
  <title>QR soporte Snackeria</title>
  <rect width="100%" height="100%" fill="#FFFFFF"/>
  <g fill="#0B1E33">
    <rect x="80" y="80" width="10" height="10"/><rect x="90" y="80" width="10" height="10"/><rect x="100" y="80" width="10" height="10"/><rect x="110" y="80" width="10" height="10"/><rect x="120" y="80" width="10" height="10"/><rect x="130" y="80" width="10" height="10"/><rect x="140" y="80" width="10" height="10"/><rect x="160" y="80" width="10" height="10"/><rect x="170" y="80" width="10" height="10"/><rect x="180" y="80" width="10" height="10"/><rect x="200" y="80" width="10" height="10"/><rect x="220" y="80" width="10" height="10"/><rect x="230" y="80" width="10" height="10"/><rect x="270" y="80" width="10" height="10"/><rect x="280" y="80" width="10" height="10"/><rect x="290" y="80" width="10" height="10"/><rect x="310" y="80" width="10" height="10"/><rect x="320" y="80" width="10" height="10"/><rect x="340" y="80" width="10" height="10"/><rect x="350" y="80" width="10" height="10"/><rect x="380" y="80" width="10" height="10"/><rect x="390" y="80" width="10" height="10"/><rect x="400" y="80" width="10" height="10"/><rect x="410" y="80" width="10" height="10"/><rect x="420" y="80" width="10" height="10"/><rect x="430" y="80" width="10" height="10"/><rect x="440" y="80" width="10" height="10"/><rect x="80" y="90" width="10" height="10"/><rect x="140" y="90" width="10" height="10"/><rect x="180" y="90" width="10" height="10"/><rect x="190" y="90" width="10" height="10"/><rect x="220" y="90" width="10" height="10"/><rect x="250" y="90" width="10" height="10"/><rect x="270" y="90" width="10" height="10"/><rect x="290" y="90" width="10" height="10"/><rect x="300" y="90" width="10" height="10"/><rect x="330" y="90" width="10" height="10"/><rect x="350" y="90" width="10" height="10"/><rect x="380" y="90" width="10" height="10"/><rect x="440" y="90" width="10" height="10"/><rect x="80" y="100" width="10" height="10"/><rect x="100" y="100" width="10" height="10"/><rect x="110" y="100" width="10" height="10"/><rect x="120" y="100" width="10" height="10"/><rect x="140" y="100" width="10" height="10"/><rect x="180" y="100" width="10" height="10"/><rect x="200" y="100" width="10" height="10"/><rect x="210" y="100" width="10" height="10"/><rect x="230" y="100" width="10" height="10"/><rect x="260" y="100" width="10" height="10"/><rect x="270" y="100" width="10" height="10"/><rect x="290" y="100" width="10" height="10"/><rect x="300" y="100" width="10" height="10"/><rect x="310" y="100" width="10" height="10"/><rect x="380" y="100" width="10" height="10"/><rect x="400" y="100" width="10" height="10"/><rect x="410" y="100" width="10" height="10"/><rect x="420" y="100" width="10" height="10"/><rect x="440" y="100" width="10" height="10"/><rect x="80" y="110" width="10" height="10"/><rect x="100" y="110" width="10" height="10"/><rect x="110" y="110" width="10" height="10"/><rect x="120" y="110" width="10" height="10"/><rect x="140" y="110" width="10" height="10"/><rect x="160" y="110" width="10" height="10"/><rect x="170" y="110" width="10" height="10"/><rect x="190" y="110" width="10" height="10"/><rect x="200" y="110" width="10" height="10"/><rect x="210" y="110" width="10" height="10"/><rect x="240" y="110" width="10" height="10"/><rect x="250" y="110" width="10" height="10"/><rect x="270" y="110" width="10" height="10"/><rect x="280" y="110" width="10" height="10"/><rect x="290" y="110" width="10" height="10"/><rect x="310" y="110" width="10" height="10"/><rect x="340" y="110" width="10" height="10"/><rect x="350" y="110" width="10" height="10"/><rect x="380" y="110" width="10" height="10"/><rect x="400" y="110" width="10" height="10"/><rect x="410" y="110" width="10" height="10"/><rect x="420" y="110" width="10" height="10"/><rect x="440" y="110" width="10" height="10"/><rect x="80" y="120" width="10" height="10"/><rect x="100" y="120" width="10" height="10"/><rect x="110" y="120" width="10" height="10"/><rect x="120" y="120" width="10" height="10"/><rect x="140" y="120" width="10" height="10"/><rect x="170" y="120" width="10" height="10"/><rect x="230" y="120" width="10" height="10"/><rect x="260" y="120" width="10" height="10"/><rect x="270" y="120" width="10" height="10"/><rect x="280" y="120" width="10" height="10"/><rect x="290" y="120" width="10" height="10"/><rect x="310" y="120" width="10" height="10"/><rect x="320" y="120" width="10" height="10"/><rect x="340" y="120" width="10" height="10"/><rect x="350" y="120" width="10" height="10"/><rect x="360" y="120" width="10" height="10"/><rect x="380" y="120" width="10" height="10"/><rect x="400" y="120" width="10" height="10"/><rect x="410" y="120" width="10" height="10"/><rect x="420" y="120" width="10" height="10"/><rect x="440" y="120" width="10" height="10"/><rect x="80" y="130" width="10" height="10"/><rect x="140" y="130" width="10" height="10"/><rect x="180" y="130" width="10" height="10"/><rect x="200" y="130" width="10" height="10"/><rect x="220" y="130" width="10" height="10"/><rect x="270" y="130" width="10" height="10"/><rect x="290" y="130" width="10" height="10"/><rect x="350" y="130" width="10" height="10"/><rect x="360" y="130" width="10" height="10"/><rect x="380" y="130" width="10" height="10"/><rect x="440" y="130" width="10" height="10"/><rect x="80" y="140" width="10" height="10"/><rect x="90" y="140" width="10" height="10"/><rect x="100" y="140" width="10" height="10"/><rect x="110" y="140" width="10" height="10"/><rect x="120" y="140" width="10" height="10"/><rect x="130" y="140" width="10" height="10"/><rect x="140" y="140" width="10" height="10"/><rect x="160" y="140" width="10" height="10"/><rect x="180" y="140" width="10" height="10"/><rect x="200" y="140" width="10" height="10"/><rect x="220" y="140" width="10" height="10"/><rect x="240" y="140" width="10" height="10"/><rect x="260" y="140" width="10" height="10"/><rect x="280" y="140" width="10" height="10"/><rect x="300" y="140" width="10" height="10"/><rect x="320" y="140" width="10" height="10"/><rect x="340" y="140" width="10" height="10"/><rect x="360" y="140" width="10" height="10"/><rect x="380" y="140" width="10" height="10"/><rect x="390" y="140" width="10" height="10"/><rect x="400" y="140" width="10" height="10"/><rect x="410" y="140" width="10" height="10"/><rect x="420" y="140" width="10" height="10"/><rect x="430" y="140" width="10" height="10"/><rect x="440" y="140" width="10" height="10"/><rect x="180" y="150" width="10" height="10"/><rect x="200" y="150" width="10" height="10"/><rect x="220" y="150" width="10" height="10"/><rect x="230" y="150" width="10" height="10"/><rect x="260" y="150" width="10" height="10"/><rect x="270" y="150" width="10" height="10"/><rect x="280" y="150" width="10" height="10"/><rect x="290" y="150" width="10" height="10"/><rect x="300" y="150" width="10" height="10"/><rect x="310" y="150" width="10" height="10"/><rect x="320" y="150" width="10" height="10"/><rect x="330" y="150" width="10" height="10"/><rect x="360" y="150" width="10" height="10"/><rect x="100" y="160" width="10" height="10"/><rect x="120" y="160" width="10" height="10"/><rect x="130" y="160" width="10" height="10"/><rect x="140" y="160" width="10" height="10"/><rect x="160" y="160" width="10" height="10"/><rect x="230" y="160" width="10" height="10"/><rect x="240" y="160" width="10" height="10"/><rect x="250" y="160" width="10" height="10"/><rect x="260" y="160" width="10" height="10"/><rect x="270" y="160" width="10" height="10"/><rect x="280" y="160" width="10" height="10"/><rect x="290" y="160" width="10" height="10"/><rect x="310" y="160" width="10" height="10"/><rect x="330" y="160" width="10" height="10"/><rect x="350" y="160" width="10" height="10"/><rect x="370" y="160" width="10" height="10"/><rect x="410" y="160" width="10" height="10"/><rect x="440" y="160" width="10" height="10"/><rect x="80" y="170" width="10" height="10"/><rect x="110" y="170" width="10" height="10"/><rect x="120" y="170" width="10" height="10"/><rect x="130" y="170" width="10" height="10"/><rect x="150" y="170" width="10" height="10"/><rect x="170" y="170" width="10" height="10"/><rect x="190" y="170" width="10" height="10"/><rect x="200" y="170" width="10" height="10"/><rect x="210" y="170" width="10" height="10"/><rect x="230" y="170" width="10" height="10"/><rect x="250" y="170" width="10" height="10"/><rect x="280" y="170" width="10" height="10"/><rect x="290" y="170" width="10" height="10"/><rect x="300" y="170" width="10" height="10"/><rect x="340" y="170" width="10" height="10"/><rect x="360" y="170" width="10" height="10"/><rect x="370" y="170" width="10" height="10"/><rect x="380" y="170" width="10" height="10"/><rect x="420" y="170" width="10" height="10"/><rect x="440" y="170" width="10" height="10"/><rect x="80" y="180" width="10" height="10"/><rect x="100" y="180" width="10" height="10"/><rect x="110" y="180" width="10" height="10"/><rect x="130" y="180" width="10" height="10"/><rect x="140" y="180" width="10" height="10"/><rect x="150" y="180" width="10" height="10"/><rect x="190" y="180" width="10" height="10"/><rect x="210" y="180" width="10" height="10"/><rect x="230" y="180" width="10" height="10"/><rect x="260" y="180" width="10" height="10"/><rect x="290" y="180" width="10" height="10"/><rect x="300" y="180" width="10" height="10"/><rect x="320" y="180" width="10" height="10"/><rect x="330" y="180" width="10" height="10"/><rect x="380" y="180" width="10" height="10"/><rect x="390" y="180" width="10" height="10"/><rect x="410" y="180" width="10" height="10"/><rect x="430" y="180" width="10" height="10"/><rect x="440" y="180" width="10" height="10"/><rect x="90" y="190" width="10" height="10"/><rect x="130" y="190" width="10" height="10"/><rect x="200" y="190" width="10" height="10"/><rect x="210" y="190" width="10" height="10"/><rect x="220" y="190" width="10" height="10"/><rect x="230" y="190" width="10" height="10"/><rect x="260" y="190" width="10" height="10"/><rect x="270" y="190" width="10" height="10"/><rect x="280" y="190" width="10" height="10"/><rect x="310" y="190" width="10" height="10"/><rect x="330" y="190" width="10" height="10"/><rect x="340" y="190" width="10" height="10"/><rect x="360" y="190" width="10" height="10"/><rect x="370" y="190" width="10" height="10"/><rect x="390" y="190" width="10" height="10"/><rect x="430" y="190" width="10" height="10"/><rect x="90" y="200" width="10" height="10"/><rect x="110" y="200" width="10" height="10"/><rect x="140" y="200" width="10" height="10"/><rect x="150" y="200" width="10" height="10"/><rect x="160" y="200" width="10" height="10"/><rect x="190" y="200" width="10" height="10"/><rect x="220" y="200" width="10" height="10"/><rect x="240" y="200" width="10" height="10"/><rect x="280" y="200" width="10" height="10"/><rect x="290" y="200" width="10" height="10"/><rect x="320" y="200" width="10" height="10"/><rect x="330" y="200" width="10" height="10"/><rect x="350" y="200" width="10" height="10"/><rect x="360" y="200" width="10" height="10"/><rect x="370" y="200" width="10" height="10"/><rect x="380" y="200" width="10" height="10"/><rect x="440" y="200" width="10" height="10"/><rect x="80" y="210" width="10" height="10"/><rect x="100" y="210" width="10" height="10"/><rect x="110" y="210" width="10" height="10"/><rect x="150" y="210" width="10" height="10"/><rect x="160" y="210" width="10" height="10"/><rect x="180" y="210" width="10" height="10"/><rect x="190" y="210" width="10" height="10"/><rect x="200" y="210" width="10" height="10"/><rect x="220" y="210" width="10" height="10"/><rect x="230" y="210" width="10" height="10"/><rect x="240" y="210" width="10" height="10"/><rect x="270" y="210" width="10" height="10"/><rect x="280" y="210" width="10" height="10"/><rect x="290" y="210" width="10" height="10"/><rect x="310" y="210" width="10" height="10"/><rect x="340" y="210" width="10" height="10"/><rect x="360" y="210" width="10" height="10"/><rect x="380" y="210" width="10" height="10"/><rect x="410" y="210" width="10" height="10"/><rect x="420" y="210" width="10" height="10"/><rect x="430" y="210" width="10" height="10"/><rect x="440" y="210" width="10" height="10"/><rect x="90" y="220" width="10" height="10"/><rect x="100" y="220" width="10" height="10"/><rect x="110" y="220" width="10" height="10"/><rect x="130" y="220" width="10" height="10"/><rect x="140" y="220" width="10" height="10"/><rect x="150" y="220" width="10" height="10"/><rect x="160" y="220" width="10" height="10"/><rect x="180" y="220" width="10" height="10"/><rect x="190" y="220" width="10" height="10"/><rect x="200" y="220" width="10" height="10"/><rect x="230" y="220" width="10" height="10"/><rect x="250" y="220" width="10" height="10"/><rect x="270" y="220" width="10" height="10"/><rect x="290" y="220" width="10" height="10"/><rect x="320" y="220" width="10" height="10"/><rect x="330" y="220" width="10" height="10"/><rect x="360" y="220" width="10" height="10"/><rect x="380" y="220" width="10" height="10"/><rect x="390" y="220" width="10" height="10"/><rect x="420" y="220" width="10" height="10"/><rect x="430" y="220" width="10" height="10"/><rect x="440" y="220" width="10" height="10"/><rect x="80" y="230" width="10" height="10"/><rect x="100" y="230" width="10" height="10"/><rect x="150" y="230" width="10" height="10"/><rect x="170" y="230" width="10" height="10"/><rect x="190" y="230" width="10" height="10"/><rect x="200" y="230" width="10" height="10"/><rect x="230" y="230" width="10" height="10"/><rect x="240" y="230" width="10" height="10"/><rect x="250" y="230" width="10" height="10"/><rect x="260" y="230" width="10" height="10"/><rect x="270" y="230" width="10" height="10"/><rect x="280" y="230" width="10" height="10"/><rect x="290" y="230" width="10" height="10"/><rect x="300" y="230" width="10" height="10"/><rect x="310" y="230" width="10" height="10"/><rect x="330" y="230" width="10" height="10"/><rect x="340" y="230" width="10" height="10"/><rect x="350" y="230" width="10" height="10"/><rect x="370" y="230" width="10" height="10"/><rect x="380" y="230" width="10" height="10"/><rect x="390" y="230" width="10" height="10"/><rect x="110" y="240" width="10" height="10"/><rect x="120" y="240" width="10" height="10"/><rect x="130" y="240" width="10" height="10"/><rect x="140" y="240" width="10" height="10"/><rect x="170" y="240" width="10" height="10"/><rect x="190" y="240" width="10" height="10"/><rect x="210" y="240" width="10" height="10"/><rect x="250" y="240" width="10" height="10"/><rect x="260" y="240" width="10" height="10"/><rect x="270" y="240" width="10" height="10"/><rect x="300" y="240" width="10" height="10"/><rect x="310" y="240" width="10" height="10"/><rect x="320" y="240" width="10" height="10"/><rect x="330" y="240" width="10" height="10"/><rect x="340" y="240" width="10" height="10"/><rect x="360" y="240" width="10" height="10"/><rect x="370" y="240" width="10" height="10"/><rect x="380" y="240" width="10" height="10"/><rect x="390" y="240" width="10" height="10"/><rect x="410" y="240" width="10" height="10"/><rect x="440" y="240" width="10" height="10"/><rect x="80" y="250" width="10" height="10"/><rect x="100" y="250" width="10" height="10"/><rect x="160" y="250" width="10" height="10"/><rect x="180" y="250" width="10" height="10"/><rect x="210" y="250" width="10" height="10"/><rect x="220" y="250" width="10" height="10"/><rect x="240" y="250" width="10" height="10"/><rect x="260" y="250" width="10" height="10"/><rect x="280" y="250" width="10" height="10"/><rect x="290" y="250" width="10" height="10"/><rect x="300" y="250" width="10" height="10"/><rect x="320" y="250" width="10" height="10"/><rect x="360" y="250" width="10" height="10"/><rect x="370" y="250" width="10" height="10"/><rect x="380" y="250" width="10" height="10"/><rect x="410" y="250" width="10" height="10"/><rect x="430" y="250" width="10" height="10"/><rect x="440" y="250" width="10" height="10"/><rect x="100" y="260" width="10" height="10"/><rect x="130" y="260" width="10" height="10"/><rect x="140" y="260" width="10" height="10"/><rect x="150" y="260" width="10" height="10"/><rect x="160" y="260" width="10" height="10"/><rect x="180" y="260" width="10" height="10"/><rect x="190" y="260" width="10" height="10"/><rect x="290" y="260" width="10" height="10"/><rect x="300" y="260" width="10" height="10"/><rect x="330" y="260" width="10" height="10"/><rect x="370" y="260" width="10" height="10"/><rect x="390" y="260" width="10" height="10"/><rect x="400" y="260" width="10" height="10"/><rect x="410" y="260" width="10" height="10"/><rect x="430" y="260" width="10" height="10"/><rect x="440" y="260" width="10" height="10"/><rect x="80" y="270" width="10" height="10"/><rect x="90" y="270" width="10" height="10"/><rect x="100" y="270" width="10" height="10"/><rect x="150" y="270" width="10" height="10"/><rect x="160" y="270" width="10" height="10"/><rect x="170" y="270" width="10" height="10"/><rect x="180" y="270" width="10" height="10"/><rect x="230" y="270" width="10" height="10"/><rect x="250" y="270" width="10" height="10"/><rect x="260" y="270" width="10" height="10"/><rect x="270" y="270" width="10" height="10"/><rect x="280" y="270" width="10" height="10"/><rect x="290" y="270" width="10" height="10"/><rect x="310" y="270" width="10" height="10"/><rect x="320" y="270" width="10" height="10"/><rect x="330" y="270" width="10" height="10"/><rect x="350" y="270" width="10" height="10"/><rect x="380" y="270" width="10" height="10"/><rect x="430" y="270" width="10" height="10"/><rect x="100" y="280" width="10" height="10"/><rect x="110" y="280" width="10" height="10"/><rect x="120" y="280" width="10" height="10"/><rect x="130" y="280" width="10" height="10"/><rect x="140" y="280" width="10" height="10"/><rect x="170" y="280" width="10" height="10"/><rect x="180" y="280" width="10" height="10"/><rect x="200" y="280" width="10" height="10"/><rect x="230" y="280" width="10" height="10"/><rect x="240" y="280" width="10" height="10"/><rect x="260" y="280" width="10" height="10"/><rect x="270" y="280" width="10" height="10"/><rect x="290" y="280" width="10" height="10"/><rect x="300" y="280" width="10" height="10"/><rect x="310" y="280" width="10" height="10"/><rect x="330" y="280" width="10" height="10"/><rect x="360" y="280" width="10" height="10"/><rect x="370" y="280" width="10" height="10"/><rect x="380" y="280" width="10" height="10"/><rect x="390" y="280" width="10" height="10"/><rect x="430" y="280" width="10" height="10"/><rect x="80" y="290" width="10" height="10"/><rect x="90" y="290" width="10" height="10"/><rect x="130" y="290" width="10" height="10"/><rect x="150" y="290" width="10" height="10"/><rect x="180" y="290" width="10" height="10"/><rect x="200" y="290" width="10" height="10"/><rect x="230" y="290" width="10" height="10"/><rect x="250" y="290" width="10" height="10"/><rect x="270" y="290" width="10" height="10"/><rect x="290" y="290" width="10" height="10"/><rect x="300" y="290" width="10" height="10"/><rect x="310" y="290" width="10" height="10"/><rect x="320" y="290" width="10" height="10"/><rect x="330" y="290" width="10" height="10"/><rect x="340" y="290" width="10" height="10"/><rect x="370" y="290" width="10" height="10"/><rect x="380" y="290" width="10" height="10"/><rect x="410" y="290" width="10" height="10"/><rect x="430" y="290" width="10" height="10"/><rect x="440" y="290" width="10" height="10"/><rect x="80" y="300" width="10" height="10"/><rect x="120" y="300" width="10" height="10"/><rect x="130" y="300" width="10" height="10"/><rect x="140" y="300" width="10" height="10"/><rect x="150" y="300" width="10" height="10"/><rect x="170" y="300" width="10" height="10"/><rect x="190" y="300" width="10" height="10"/><rect x="200" y="300" width="10" height="10"/><rect x="210" y="300" width="10" height="10"/><rect x="220" y="300" width="10" height="10"/><rect x="230" y="300" width="10" height="10"/><rect x="250" y="300" width="10" height="10"/><rect x="260" y="300" width="10" height="10"/><rect x="300" y="300" width="10" height="10"/><rect x="310" y="300" width="10" height="10"/><rect x="360" y="300" width="10" height="10"/><rect x="370" y="300" width="10" height="10"/><rect x="400" y="300" width="10" height="10"/><rect x="410" y="300" width="10" height="10"/><rect x="430" y="300" width="10" height="10"/><rect x="440" y="300" width="10" height="10"/><rect x="90" y="310" width="10" height="10"/><rect x="100" y="310" width="10" height="10"/><rect x="160" y="310" width="10" height="10"/><rect x="170" y="310" width="10" height="10"/><rect x="200" y="310" width="10" height="10"/><rect x="210" y="310" width="10" height="10"/><rect x="220" y="310" width="10" height="10"/><rect x="250" y="310" width="10" height="10"/><rect x="260" y="310" width="10" height="10"/><rect x="280" y="310" width="10" height="10"/><rect x="300" y="310" width="10" height="10"/><rect x="320" y="310" width="10" height="10"/><rect x="330" y="310" width="10" height="10"/><rect x="380" y="310" width="10" height="10"/><rect x="410" y="310" width="10" height="10"/><rect x="440" y="310" width="10" height="10"/><rect x="100" y="320" width="10" height="10"/><rect x="120" y="320" width="10" height="10"/><rect x="140" y="320" width="10" height="10"/><rect x="200" y="320" width="10" height="10"/><rect x="230" y="320" width="10" height="10"/><rect x="260" y="320" width="10" height="10"/><rect x="270" y="320" width="10" height="10"/><rect x="290" y="320" width="10" height="10"/><rect x="320" y="320" width="10" height="10"/><rect x="330" y="320" width="10" height="10"/><rect x="350" y="320" width="10" height="10"/><rect x="360" y="320" width="10" height="10"/><rect x="370" y="320" width="10" height="10"/><rect x="380" y="320" width="10" height="10"/><rect x="390" y="320" width="10" height="10"/><rect x="440" y="320" width="10" height="10"/><rect x="90" y="330" width="10" height="10"/><rect x="110" y="330" width="10" height="10"/><rect x="130" y="330" width="10" height="10"/><rect x="160" y="330" width="10" height="10"/><rect x="170" y="330" width="10" height="10"/><rect x="180" y="330" width="10" height="10"/><rect x="210" y="330" width="10" height="10"/><rect x="220" y="330" width="10" height="10"/><rect x="230" y="330" width="10" height="10"/><rect x="240" y="330" width="10" height="10"/><rect x="270" y="330" width="10" height="10"/><rect x="290" y="330" width="10" height="10"/><rect x="300" y="330" width="10" height="10"/><rect x="310" y="330" width="10" height="10"/><rect x="330" y="330" width="10" height="10"/><rect x="360" y="330" width="10" height="10"/><rect x="380" y="330" width="10" height="10"/><rect x="420" y="330" width="10" height="10"/><rect x="440" y="330" width="10" height="10"/><rect x="80" y="340" width="10" height="10"/><rect x="130" y="340" width="10" height="10"/><rect x="140" y="340" width="10" height="10"/><rect x="210" y="340" width="10" height="10"/><rect x="230" y="340" width="10" height="10"/><rect x="250" y="340" width="10" height="10"/><rect x="280" y="340" width="10" height="10"/><rect x="330" y="340" width="10" height="10"/><rect x="340" y="340" width="10" height="10"/><rect x="360" y="340" width="10" height="10"/><rect x="380" y="340" width="10" height="10"/><rect x="390" y="340" width="10" height="10"/><rect x="410" y="340" width="10" height="10"/><rect x="420" y="340" width="10" height="10"/><rect x="430" y="340" width="10" height="10"/><rect x="440" y="340" width="10" height="10"/><rect x="90" y="350" width="10" height="10"/><rect x="110" y="350" width="10" height="10"/><rect x="120" y="350" width="10" height="10"/><rect x="130" y="350" width="10" height="10"/><rect x="160" y="350" width="10" height="10"/><rect x="180" y="350" width="10" height="10"/><rect x="200" y="350" width="10" height="10"/><rect x="210" y="350" width="10" height="10"/><rect x="220" y="350" width="10" height="10"/><rect x="230" y="350" width="10" height="10"/><rect x="300" y="350" width="10" height="10"/><rect x="320" y="350" width="10" height="10"/><rect x="330" y="350" width="10" height="10"/><rect x="340" y="350" width="10" height="10"/><rect x="350" y="350" width="10" height="10"/><rect x="380" y="350" width="10" height="10"/><rect x="400" y="350" width="10" height="10"/><rect x="410" y="350" width="10" height="10"/><rect x="430" y="350" width="10" height="10"/><rect x="80" y="360" width="10" height="10"/><rect x="100" y="360" width="10" height="10"/><rect x="130" y="360" width="10" height="10"/><rect x="140" y="360" width="10" height="10"/><rect x="150" y="360" width="10" height="10"/><rect x="160" y="360" width="10" height="10"/><rect x="170" y="360" width="10" height="10"/><rect x="200" y="360" width="10" height="10"/><rect x="260" y="360" width="10" height="10"/><rect x="270" y="360" width="10" height="10"/><rect x="290" y="360" width="10" height="10"/><rect x="300" y="360" width="10" height="10"/><rect x="310" y="360" width="10" height="10"/><rect x="320" y="360" width="10" height="10"/><rect x="330" y="360" width="10" height="10"/><rect x="360" y="360" width="10" height="10"/><rect x="370" y="360" width="10" height="10"/><rect x="380" y="360" width="10" height="10"/><rect x="390" y="360" width="10" height="10"/><rect x="400" y="360" width="10" height="10"/><rect x="430" y="360" width="10" height="10"/><rect x="160" y="370" width="10" height="10"/><rect x="200" y="370" width="10" height="10"/><rect x="210" y="370" width="10" height="10"/><rect x="240" y="370" width="10" height="10"/><rect x="250" y="370" width="10" height="10"/><rect x="260" y="370" width="10" height="10"/><rect x="270" y="370" width="10" height="10"/><rect x="290" y="370" width="10" height="10"/><rect x="320" y="370" width="10" height="10"/><rect x="360" y="370" width="10" height="10"/><rect x="400" y="370" width="10" height="10"/><rect x="430" y="370" width="10" height="10"/><rect x="440" y="370" width="10" height="10"/><rect x="80" y="380" width="10" height="10"/><rect x="90" y="380" width="10" height="10"/><rect x="100" y="380" width="10" height="10"/><rect x="110" y="380" width="10" height="10"/><rect x="120" y="380" width="10" height="10"/><rect x="130" y="380" width="10" height="10"/><rect x="140" y="380" width="10" height="10"/><rect x="170" y="380" width="10" height="10"/><rect x="200" y="380" width="10" height="10"/><rect x="230" y="380" width="10" height="10"/><rect x="240" y="380" width="10" height="10"/><rect x="260" y="380" width="10" height="10"/><rect x="270" y="380" width="10" height="10"/><rect x="280" y="380" width="10" height="10"/><rect x="320" y="380" width="10" height="10"/><rect x="330" y="380" width="10" height="10"/><rect x="350" y="380" width="10" height="10"/><rect x="360" y="380" width="10" height="10"/><rect x="380" y="380" width="10" height="10"/><rect x="400" y="380" width="10" height="10"/><rect x="420" y="380" width="10" height="10"/><rect x="430" y="380" width="10" height="10"/><rect x="440" y="380" width="10" height="10"/><rect x="80" y="390" width="10" height="10"/><rect x="140" y="390" width="10" height="10"/><rect x="160" y="390" width="10" height="10"/><rect x="170" y="390" width="10" height="10"/><rect x="190" y="390" width="10" height="10"/><rect x="200" y="390" width="10" height="10"/><rect x="210" y="390" width="10" height="10"/><rect x="220" y="390" width="10" height="10"/><rect x="230" y="390" width="10" height="10"/><rect x="270" y="390" width="10" height="10"/><rect x="280" y="390" width="10" height="10"/><rect x="300" y="390" width="10" height="10"/><rect x="320" y="390" width="10" height="10"/><rect x="330" y="390" width="10" height="10"/><rect x="360" y="390" width="10" height="10"/><rect x="400" y="390" width="10" height="10"/><rect x="430" y="390" width="10" height="10"/><rect x="440" y="390" width="10" height="10"/><rect x="80" y="400" width="10" height="10"/><rect x="100" y="400" width="10" height="10"/><rect x="110" y="400" width="10" height="10"/><rect x="120" y="400" width="10" height="10"/><rect x="140" y="400" width="10" height="10"/><rect x="160" y="400" width="10" height="10"/><rect x="170" y="400" width="10" height="10"/><rect x="200" y="400" width="10" height="10"/><rect x="210" y="400" width="10" height="10"/><rect x="220" y="400" width="10" height="10"/><rect x="230" y="400" width="10" height="10"/><rect x="240" y="400" width="10" height="10"/><rect x="250" y="400" width="10" height="10"/><rect x="260" y="400" width="10" height="10"/><rect x="270" y="400" width="10" height="10"/><rect x="310" y="400" width="10" height="10"/><rect x="320" y="400" width="10" height="10"/><rect x="330" y="400" width="10" height="10"/><rect x="360" y="400" width="10" height="10"/><rect x="370" y="400" width="10" height="10"/><rect x="380" y="400" width="10" height="10"/><rect x="390" y="400" width="10" height="10"/><rect x="400" y="400" width="10" height="10"/><rect x="410" y="400" width="10" height="10"/><rect x="430" y="400" width="10" height="10"/><rect x="80" y="410" width="10" height="10"/><rect x="100" y="410" width="10" height="10"/><rect x="110" y="410" width="10" height="10"/><rect x="120" y="410" width="10" height="10"/><rect x="140" y="410" width="10" height="10"/><rect x="170" y="410" width="10" height="10"/><rect x="190" y="410" width="10" height="10"/><rect x="240" y="410" width="10" height="10"/><rect x="280" y="410" width="10" height="10"/><rect x="300" y="410" width="10" height="10"/><rect x="370" y="410" width="10" height="10"/><rect x="390" y="410" width="10" height="10"/><rect x="400" y="410" width="10" height="10"/><rect x="410" y="410" width="10" height="10"/><rect x="420" y="410" width="10" height="10"/><rect x="430" y="410" width="10" height="10"/><rect x="440" y="410" width="10" height="10"/><rect x="80" y="420" width="10" height="10"/><rect x="100" y="420" width="10" height="10"/><rect x="110" y="420" width="10" height="10"/><rect x="120" y="420" width="10" height="10"/><rect x="140" y="420" width="10" height="10"/><rect x="160" y="420" width="10" height="10"/><rect x="170" y="420" width="10" height="10"/><rect x="210" y="420" width="10" height="10"/><rect x="220" y="420" width="10" height="10"/><rect x="230" y="420" width="10" height="10"/><rect x="240" y="420" width="10" height="10"/><rect x="260" y="420" width="10" height="10"/><rect x="290" y="420" width="10" height="10"/><rect x="340" y="420" width="10" height="10"/><rect x="350" y="420" width="10" height="10"/><rect x="370" y="420" width="10" height="10"/><rect x="390" y="420" width="10" height="10"/><rect x="400" y="420" width="10" height="10"/><rect x="410" y="420" width="10" height="10"/><rect x="440" y="420" width="10" height="10"/><rect x="80" y="430" width="10" height="10"/><rect x="140" y="430" width="10" height="10"/><rect x="170" y="430" width="10" height="10"/><rect x="190" y="430" width="10" height="10"/><rect x="210" y="430" width="10" height="10"/><rect x="230" y="430" width="10" height="10"/><rect x="240" y="430" width="10" height="10"/><rect x="260" y="430" width="10" height="10"/><rect x="290" y="430" width="10" height="10"/><rect x="300" y="430" width="10" height="10"/><rect x="310" y="430" width="10" height="10"/><rect x="320" y="430" width="10" height="10"/><rect x="330" y="430" width="10" height="10"/><rect x="340" y="430" width="10" height="10"/><rect x="350" y="430" width="10" height="10"/><rect x="360" y="430" width="10" height="10"/><rect x="370" y="430" width="10" height="10"/><rect x="380" y="430" width="10" height="10"/><rect x="430" y="430" width="10" height="10"/><rect x="80" y="440" width="10" height="10"/><rect x="90" y="440" width="10" height="10"/><rect x="100" y="440" width="10" height="10"/><rect x="110" y="440" width="10" height="10"/><rect x="120" y="440" width="10" height="10"/><rect x="130" y="440" width="10" height="10"/><rect x="140" y="440" width="10" height="10"/><rect x="170" y="440" width="10" height="10"/><rect x="190" y="440" width="10" height="10"/><rect x="200" y="440" width="10" height="10"/><rect x="220" y="440" width="10" height="10"/><rect x="250" y="440" width="10" height="10"/><rect x="270" y="440" width="10" height="10"/><rect x="280" y="440" width="10" height="10"/><rect x="290" y="440" width="10" height="10"/><rect x="320" y="440" width="10" height="10"/><rect x="330" y="440" width="10" height="10"/><rect x="340" y="440" width="10" height="10"/><rect x="350" y="440" width="10" height="10"/><rect x="360" y="440" width="10" height="10"/><rect x="370" y="440" width="10" height="10"/><rect x="380" y="440" width="10" height="10"/><rect x="390" y="440" width="10" height="10"/><rect x="430" y="440" width="10" height="10"/><rect x="440" y="440" width="10" height="10"/>
  </g>
</svg>
